<svg xmlns="http://www.w3.org/2000/svg" width="290" height="76" viewBox="0 0 290 76" role="img" aria-label="Barcode BRG-000056">
<rect width="100%" height="100%" fill="#fff"/>
<rect x="0" y="0" width="4" height="54" fill="#000"/><rect x="6" y="0" width="2" height="54" fill="#000"/><rect x="12" y="0" width="2" height="54" fill="#000"/><rect x="22" y="0" width="2" height="54" fill="#000"/><rect x="30" y="0" width="2" height="54" fill="#000"/><rect x="34" y="0" width="4" height="54" fill="#000"/><rect x="44" y="0" width="4" height="54" fill="#000"/><rect x="54" y="0" width="2" height="54" fill="#000"/><rect x="58" y="0" width="6" height="54" fill="#000"/><rect x="66" y="0" width="4" height="54" fill="#000"/><rect x="72" y="0" width="2" height="54" fill="#000"/><rect x="80" y="0" width="2" height="54" fill="#000"/><rect x="88" y="0" width="2" height="54" fill="#000"/><rect x="94" y="0" width="4" height="54" fill="#000"/><rect x="100" y="0" width="6" height="54" fill="#000"/><rect x="110" y="0" width="2" height="54" fill="#000"/><rect x="116" y="0" width="6" height="54" fill="#000"/><rect x="124" y="0" width="4" height="54" fill="#000"/><rect x="132" y="0" width="2" height="54" fill="#000"/><rect x="138" y="0" width="6" height="54" fill="#000"/><rect x="146" y="0" width="4" height="54" fill="#000"/><rect x="154" y="0" width="2" height="54" fill="#000"/><rect x="160" y="0" width="6" height="54" fill="#000"/><rect x="168" y="0" width="4" height="54" fill="#000"/><rect x="176" y="0" width="2" height="54" fill="#000"/><rect x="182" y="0" width="6" height="54" fill="#000"/><rect x="190" y="0" width="4" height="54" fill="#000"/><rect x="198" y="0" width="4" height="54" fill="#000"/><rect x="204" y="0" width="6" height="54" fill="#000"/><rect x="214" y="0" width="2" height="54" fill="#000"/><rect x="220" y="0" width="4" height="54" fill="#000"/><rect x="228" y="0" width="6" height="54" fill="#000"/><rect x="236" y="0" width="2" height="54" fill="#000"/><rect x="242" y="0" width="2" height="54" fill="#000"/><rect x="246" y="0" width="6" height="54" fill="#000"/><rect x="254" y="0" width="8" height="54" fill="#000"/><rect x="264" y="0" width="4" height="54" fill="#000"/><rect x="274" y="0" width="6" height="54" fill="#000"/><rect x="282" y="0" width="2" height="54" fill="#000"/><rect x="286" y="0" width="4" height="54" fill="#000"/>
<text x="50%" y="70" text-anchor="middle" font-family="Arial, sans-serif" font-size="14" fill="#000">BRG-000056</text>
</svg>